<svg width="393" height="342" viewBox="0 0 393 342" fill="none" xmlns="http://www.w3.org/2000/svg">
<g clip-path="url(#clip0_64_2484)">
<rect x="1" width="396" height="247" fill="#DDF0CD"/>
<path d="M354.332 99.0019C352.736 98.9576 351.051 99.6897 349.631 101.444C343.645 96.2265 338.101 101.777 335.995 107.861C332.826 106.174 331.184 105.508 328.346 108.816C326.306 106.284 324.356 104.997 320.697 105.041C316.085 94.6055 305.442 99.2453 301.74 107.905C299.856 104.798 297.794 104.086 294.091 105.842C289.834 101.51 283.426 101.134 279.258 106.886C275.709 105.13 273.659 106.351 270 107.905L268.127 109.113V113.613H375.328V101.488C373.067 102.043 370.784 103.887 368.788 106.419C366.348 103.087 363.888 102.576 360.031 104.686C359.386 101.355 356.971 99.0904 354.332 99.0019Z" fill="#F4FCED"/>
<path d="M271 111.113C271 112.217 269.657 113.613 268 113.613C266.343 113.613 265 112.217 265 111.113C265 110.008 266.343 109.113 268 109.113C269.657 109.113 271 110.008 271 111.113Z" fill="#F4FCED"/>
<path d="M380 110.113C380 112.949 377.787 113.613 376.5 113.613C371.839 113.613 372.008 109.727 372.008 106.89C372.008 104.054 375.5 98.1125 378 104.113C382 105.613 380 107.276 380 110.113Z" fill="#F4FCED"/>
<mask id="mask0_64_2484" style="mask-type:luminance" maskUnits="userSpaceOnUse" x="211" y="115" width="256" height="70">
<path d="M211.348 115.167H466.83V184.565H211.348V115.167Z" fill="white"/>
</mask>
<g mask="url(#mask0_64_2484)">
<mask id="mask1_64_2484" style="mask-type:luminance" maskUnits="userSpaceOnUse" x="211" y="108" width="256" height="77">
<path d="M211.354 113.575L465.145 108.998L466.417 179.8L212.628 184.379L211.354 113.575Z" fill="white"/>
</mask>
<g mask="url(#mask1_64_2484)">
<mask id="mask2_64_2484" style="mask-type:luminance" maskUnits="userSpaceOnUse" x="67" y="108" width="400" height="79">
<path d="M67.6729 116.168L465.325 108.994L466.6 179.798L68.947 186.972L67.6729 116.168Z" fill="white"/>
</mask>
<g mask="url(#mask2_64_2484)">
<path d="M466.498 179.85L69.028 187.02C69.028 187.02 88.0595 172.91 109.162 151.787C127.039 133.894 147.894 114.724 169.928 115.535C174.079 115.692 178.087 116.529 181.954 118.047C208.395 128.33 211.534 153.067 253.602 153.851C254.427 153.868 255.248 153.816 256.064 153.698C272.033 151.441 284.883 125.213 302.549 124.09C304.804 123.95 307.012 124.21 309.174 124.867C331.372 131.491 360.127 163.531 389.201 159.913C424.326 155.54 428.798 140.743 466.498 179.85Z" fill="#A9C57C"/>
</g>
</g>
</g>
<mask id="mask3_64_2484" style="mask-type:luminance" maskUnits="userSpaceOnUse" x="211" y="115" width="80" height="70">
<path d="M211.348 115.167H290.538V184.565H211.348V115.167Z" fill="white"/>
</mask>
<g mask="url(#mask3_64_2484)">
<mask id="mask4_64_2484" style="mask-type:luminance" maskUnits="userSpaceOnUse" x="211" y="108" width="256" height="77">
<path d="M211.354 113.575L465.145 108.998L466.417 179.8L212.628 184.379L211.354 113.575Z" fill="white"/>
</mask>
<g mask="url(#mask4_64_2484)">
<mask id="mask5_64_2484" style="mask-type:luminance" maskUnits="userSpaceOnUse" x="67" y="108" width="400" height="79">
<path d="M67.6729 116.168L465.325 108.994L466.6 179.798L68.947 186.972L67.6729 116.168Z" fill="white"/>
</mask>
<g mask="url(#mask5_64_2484)">
<path d="M290.326 183.027L69.028 187.02C69.028 187.02 88.0595 172.91 109.162 151.787C127.039 133.894 147.894 114.724 169.928 115.535C174.079 115.692 178.087 116.529 181.954 118.047C208.395 128.33 211.534 153.067 253.602 153.851C254.427 153.868 255.248 153.816 256.064 153.698L256.237 154.275C256.237 154.275 254.37 182.985 290.326 183.027Z" fill="#B7D08E"/>
</g>
</g>
</g>
<mask id="mask6_64_2484" style="mask-type:luminance" maskUnits="userSpaceOnUse" x="211" y="115" width="31" height="70">
<path d="M211.348 115.167H241.044V184.565H211.348V115.167Z" fill="white"/>
</mask>
<g mask="url(#mask6_64_2484)">
<mask id="mask7_64_2484" style="mask-type:luminance" maskUnits="userSpaceOnUse" x="211" y="108" width="256" height="77">
<path d="M211.354 113.575L465.145 108.998L466.417 179.8L212.628 184.379L211.354 113.575Z" fill="white"/>
</mask>
<g mask="url(#mask7_64_2484)">
<mask id="mask8_64_2484" style="mask-type:luminance" maskUnits="userSpaceOnUse" x="67" y="108" width="400" height="79">
<path d="M67.6729 116.168L465.325 108.994L466.6 179.798L68.947 186.972L67.6729 116.168Z" fill="white"/>
</mask>
<g mask="url(#mask8_64_2484)">
<path d="M239.395 183.945L69.028 187.02C69.028 187.02 88.0595 172.91 109.162 151.787C127.039 133.894 147.894 114.724 169.928 115.535C170.225 115.69 170.525 115.849 170.825 116.007C172.116 116.703 186.645 133.152 176.706 144.586C166.765 156.02 225.887 158.415 236.264 171.118C242.503 178.76 241.322 182.323 239.395 183.945Z" fill="#A9C57C"/>
</g>
</g>
</g>
<mask id="mask9_64_2484" style="mask-type:luminance" maskUnits="userSpaceOnUse" x="299" y="123" width="168" height="60">
<path d="M299.494 123.664H466.83V182.204H299.494V123.664Z" fill="white"/>
</mask>
<g mask="url(#mask9_64_2484)">
<mask id="mask10_64_2484" style="mask-type:luminance" maskUnits="userSpaceOnUse" x="211" y="108" width="256" height="77">
<path d="M211.354 113.575L465.145 108.998L466.417 179.8L212.628 184.379L211.354 113.575Z" fill="white"/>
</mask>
<g mask="url(#mask10_64_2484)">
<mask id="mask11_64_2484" style="mask-type:luminance" maskUnits="userSpaceOnUse" x="67" y="108" width="400" height="79">
<path d="M67.6727 116.168L465.325 108.994L466.599 179.798L68.9469 186.972L67.6727 116.168Z" fill="white"/>
</mask>
<g mask="url(#mask11_64_2484)">
<path d="M466.498 179.85L353.269 181.891C352.256 167.759 326.329 159.855 309.921 152.767C292.48 145.235 302.549 124.088 302.549 124.088C304.804 123.95 307.012 124.208 309.173 124.865C331.372 131.489 360.125 163.529 389.201 159.911C424.325 155.54 428.798 140.743 466.498 179.85Z" fill="#B7D08E"/>
</g>
</g>
</g>
<mask id="mask12_64_2484" style="mask-type:luminance" maskUnits="userSpaceOnUse" x="294" y="150" width="77" height="41">
<path d="M294.78 150.102H370.671V190.23H294.78V150.102Z" fill="white"/>
</mask>
<g mask="url(#mask12_64_2484)">
<mask id="mask13_64_2484" style="mask-type:luminance" maskUnits="userSpaceOnUse" x="294" y="146" width="106" height="47">
<path d="M297.371 146.712L399.176 155.35L396.012 192.747L294.208 184.109L297.371 146.712Z" fill="white"/>
</mask>
<g mask="url(#mask13_64_2484)">
<mask id="mask14_64_2484" style="mask-type:luminance" maskUnits="userSpaceOnUse" x="294" y="146" width="106" height="47">
<path d="M297.371 146.712L399.176 155.35L396.012 192.747L294.208 184.109L297.371 146.712Z" fill="white"/>
</mask>
<g mask="url(#mask14_64_2484)">
<path d="M307.122 169.124C306.785 167.971 306.367 166.891 306.161 165.769C305.438 161.854 305.992 158.157 308.363 154.871C310.295 152.195 312.915 150.614 316.231 150.38C319.122 150.174 321.707 151.061 323.979 152.857C325.727 154.24 327.025 155.975 327.951 157.998C328.03 158.172 328.108 158.345 328.218 158.588C328.334 158.389 328.426 158.242 328.511 158.087C330.582 154.266 333.747 151.938 338.06 151.426C344.239 150.69 349.082 154.627 350.124 159.99C350.498 161.912 350.343 163.805 349.755 165.668C349.698 165.851 349.639 166.031 349.558 166.282C349.748 166.26 349.906 166.253 350.061 166.225C354.386 165.456 358.33 168.608 358.511 173.01C358.538 173.69 358.408 174.378 358.345 175.106C358.562 175.055 358.778 175.007 358.991 174.953C363.95 173.69 369.317 176.973 370.407 181.812C371.194 185.31 369.441 188.642 366.117 189.964C365.624 190.162 365.119 190.186 364.594 190.142C356.005 189.419 347.413 188.699 338.822 187.982C325.762 186.894 312.703 185.799 299.643 184.74C298.614 184.657 297.892 184.268 297.273 183.471C295.476 181.157 294.718 178.577 295.355 175.698C295.999 172.786 297.791 170.749 300.512 169.561C302.39 168.74 304.348 168.554 306.358 168.975C306.618 169.028 306.879 169.076 307.122 169.124Z" fill="#799849"/>
</g>
</g>
</g>
<mask id="mask15_64_2484" style="mask-type:luminance" maskUnits="userSpaceOnUse" x="340" y="162" width="57" height="31">
<path d="M340.032 162.848H396.596V192.591H340.032V162.848Z" fill="white"/>
</mask>
<g mask="url(#mask15_64_2484)">
<mask id="mask16_64_2484" style="mask-type:luminance" maskUnits="userSpaceOnUse" x="294" y="146" width="106" height="47">
<path d="M297.371 146.712L399.176 155.35L396.012 192.747L294.208 184.109L297.371 146.712Z" fill="white"/>
</mask>
<g mask="url(#mask16_64_2484)">
<mask id="mask17_64_2484" style="mask-type:luminance" maskUnits="userSpaceOnUse" x="294" y="146" width="106" height="47">
<path d="M297.371 146.712L399.176 155.35L396.012 192.747L294.208 184.109L297.371 146.712Z" fill="white"/>
</mask>
<g mask="url(#mask17_64_2484)">
<path d="M388.391 180.292C388.778 179.497 389.216 178.763 389.505 177.974C390.516 175.219 390.569 172.464 389.255 169.782C388.183 167.599 386.474 166.125 384.094 165.543C382.018 165.034 380.03 165.356 378.157 166.38C376.717 167.169 375.559 168.268 374.635 169.622C374.556 169.738 374.478 169.854 374.368 170.018C374.309 169.86 374.259 169.74 374.219 169.616C373.186 166.583 371.173 164.499 368.104 163.591C363.705 162.29 359.7 164.549 358.279 168.314C357.769 169.664 357.647 171.06 357.842 172.488C357.863 172.626 357.883 172.766 357.911 172.958C357.776 172.917 357.66 172.891 357.552 172.853C354.506 171.757 351.249 173.557 350.573 176.733C350.468 177.225 350.479 177.74 350.433 178.278C350.282 178.214 350.131 178.151 349.984 178.085C346.537 176.552 342.232 178.271 340.84 181.651C339.835 184.095 340.696 186.734 342.948 188.107C343.282 188.312 343.646 188.391 344.033 188.425C350.363 188.967 356.695 189.511 363.026 190.057C372.648 190.888 382.273 191.715 391.893 192.567C392.65 192.635 393.223 192.443 393.771 191.94C395.362 190.481 396.233 188.701 396.126 186.531C396.02 184.334 394.97 182.632 393.14 181.43C391.879 180.602 390.477 180.222 388.966 180.279C388.77 180.286 388.575 180.288 388.391 180.292Z" fill="#799849"/>
</g>
</g>
</g>
<mask id="mask18_64_2484" style="mask-type:luminance" maskUnits="userSpaceOnUse" x="324" y="162" width="57" height="30">
<path d="M324.948 162.376H380.569V191.174H324.948V162.376Z" fill="white"/>
</mask>
<g mask="url(#mask18_64_2484)">
<mask id="mask19_64_2484" style="mask-type:luminance" maskUnits="userSpaceOnUse" x="294" y="146" width="106" height="47">
<path d="M297.371 146.712L399.175 155.35L396.012 192.747L294.208 184.11L297.371 146.712Z" fill="white"/>
</mask>
<g mask="url(#mask19_64_2484)">
<mask id="mask20_64_2484" style="mask-type:luminance" maskUnits="userSpaceOnUse" x="294" y="146" width="106" height="47">
<path d="M297.371 146.712L399.175 155.35L396.012 192.747L294.208 184.11L297.371 146.712Z" fill="white"/>
</mask>
<g mask="url(#mask20_64_2484)">
<path d="M334.618 175.944C334.629 172.962 335.822 170.69 338.428 169.329C341.008 167.979 343.539 168.302 345.933 169.919C347.319 164.564 352.473 161.598 357.446 162.605C360.019 163.125 362.074 164.503 363.565 166.671C365.057 168.84 365.537 171.258 365.167 173.937C367.621 172.255 370.045 172.091 372.313 174.035C374.103 175.567 374.523 177.592 373.897 179.885C373.985 179.879 374.051 179.885 374.108 179.868C376.368 179.197 378.708 180.268 379.798 182.538C381.009 185.063 380.312 188.288 378.159 189.994C377.098 190.835 375.889 191.215 374.528 191.093C359.588 189.765 344.646 188.44 329.706 187.114C329.411 187.086 329.12 187.049 328.826 187.027C328.014 186.97 327.34 186.601 326.885 185.955C325.276 183.669 324.633 181.177 325.471 178.424C326.391 175.402 329.509 174.197 332.037 174.787C332.889 174.985 333.674 175.341 334.395 175.835C334.451 175.874 334.517 175.896 334.618 175.944Z" fill="#799849"/>
</g>
</g>
</g>
<mask id="mask21_64_2484" style="mask-type:luminance" maskUnits="userSpaceOnUse" x="310" y="163" width="43" height="26">
<path d="M310.807 163.793H352.287V188.814H310.807V163.793Z" fill="white"/>
</mask>
<g mask="url(#mask21_64_2484)">
<mask id="mask22_64_2484" style="mask-type:luminance" maskUnits="userSpaceOnUse" x="294" y="146" width="106" height="47">
<path d="M297.371 146.712L399.175 155.35L396.012 192.747L294.207 184.109L297.371 146.712Z" fill="white"/>
</mask>
<g mask="url(#mask22_64_2484)">
<mask id="mask23_64_2484" style="mask-type:luminance" maskUnits="userSpaceOnUse" x="294" y="146" width="106" height="47">
<path d="M297.371 146.712L399.175 155.35L396.012 192.747L294.207 184.109L297.371 146.712Z" fill="white"/>
</mask>
<g mask="url(#mask23_64_2484)">
<path d="M346.898 181.616C346.986 181.434 347.043 181.314 347.098 181.194C347.848 179.613 348.122 177.967 347.697 176.252C347.31 174.691 346.434 173.489 344.927 172.842C343.699 172.316 342.445 172.344 341.21 172.821C340.696 173.019 340.216 173.299 339.691 173.555C339.7 173.46 339.706 173.356 339.717 173.253C339.941 171.324 339.669 169.48 338.776 167.743C338.299 166.819 337.667 166.018 336.839 165.382C334.892 163.888 332.42 163.8 330.374 165.157C329.03 166.05 328.118 167.295 327.538 168.777C327.295 169.395 327.165 170.055 326.982 170.697C326.969 170.739 326.958 170.784 326.936 170.869C326.842 170.775 326.774 170.71 326.712 170.64C325.375 169.214 323.738 168.445 321.781 168.455C319.243 168.467 317.041 170.053 316.426 172.589C316.146 173.736 316.24 174.872 316.656 175.98C316.697 176.084 316.734 176.189 316.771 176.292C316.774 176.303 316.769 176.318 316.767 176.346C316.454 176.377 316.133 176.384 315.822 176.442C313.666 176.84 312.097 177.994 311.359 180.104C310.492 182.583 311.908 185.194 314.441 185.856C314.94 185.987 315.456 186.083 315.968 186.125C320.634 186.505 325.301 186.872 329.967 187.239C333.217 187.493 336.469 187.744 339.72 187.995C342.676 188.224 345.631 188.452 348.586 188.668C348.813 188.685 349.057 188.644 349.273 188.569C350.704 188.071 351.959 186.7 351.963 184.851C351.965 183.453 350.996 182.107 349.599 181.616C348.846 181.352 348.078 181.327 347.301 181.507C347.192 181.535 347.085 181.566 346.898 181.616Z" fill="#799849"/>
</g>
</g>
</g>
<mask id="mask24_64_2484" style="mask-type:luminance" maskUnits="userSpaceOnUse" x="-40" y="138" width="456" height="168">
<path d="M-39.4199 138.771H415.922V305.894H-39.4199V138.771Z" fill="white"/>
</mask>
<g mask="url(#mask24_64_2484)">
<mask id="mask25_64_2484" style="mask-type:luminance" maskUnits="userSpaceOnUse" x="-40" y="139" width="456" height="167">
<path d="M-25.7392 139.018L415.903 191.51L402.405 305.431L-39.2376 252.94L-25.7392 139.018Z" fill="white"/>
</mask>
<g mask="url(#mask25_64_2484)">
<path d="M-25.7392 139.018L415.909 191.512L402.411 305.431L-39.2376 252.94L-25.7392 139.018Z" fill="#F3D2B1"/>
</g>
</g>
<mask id="mask26_64_2484" style="mask-type:luminance" maskUnits="userSpaceOnUse" x="-12" y="199" width="62" height="31">
<path d="M-11.6089 199.672H49.1976V229.296H-11.6089V199.672Z" fill="white"/>
</mask>
<g mask="url(#mask26_64_2484)">
<path d="M-2.40791 216.328C-2.75223 215.436 -3.15547 214.606 -3.39483 213.73C-4.23262 210.672 -4.03928 207.701 -2.38029 204.933C-1.02695 202.68 0.946909 201.251 3.56337 200.839C5.84288 200.484 7.95299 201.013 9.87529 202.285C11.3557 203.264 12.5028 204.555 13.3737 206.097C13.4474 206.228 13.521 206.363 13.6241 206.547C13.7033 206.381 13.7659 206.258 13.823 206.13C15.2095 202.958 17.5663 200.898 20.9524 200.201C25.8061 199.202 29.914 201.999 31.0998 206.184C31.5269 207.683 31.5306 209.197 31.19 210.715C31.1568 210.862 31.1218 211.012 31.074 211.215C31.2231 211.185 31.3483 211.168 31.4698 211.135C34.8486 210.233 38.1924 212.47 38.6306 215.95C38.6969 216.489 38.6398 217.044 38.6398 217.627C38.8092 217.571 38.9749 217.518 39.1406 217.461C42.9908 216.124 47.4706 218.368 48.6601 222.134C49.5199 224.856 48.3507 227.618 45.8024 228.892C45.4249 229.081 45.0254 229.134 44.6074 229.134C37.7413 229.14 30.877 229.147 24.0108 229.158C13.5763 229.173 3.13988 229.182 -7.29467 229.223C-8.11588 229.224 -8.71614 228.966 -9.25932 228.376C-10.841 226.659 -11.6162 224.662 -11.3031 222.337C-10.9864 219.982 -9.70307 218.244 -7.62426 217.119C-6.18806 216.341 -4.64691 216.061 -3.02474 216.26C-2.81483 216.286 -2.60493 216.306 -2.40791 216.328Z" fill="#799849"/>
</g>
<mask id="mask27_64_2484" style="mask-type:luminance" maskUnits="userSpaceOnUse" x="24" y="207" width="46" height="23">
<path d="M24.686 207.226H69.466V229.296H24.686V207.226Z" fill="white"/>
</mask>
<g mask="url(#mask27_64_2484)">
<path d="M62.8282 219.718C63.0823 219.059 63.3787 218.449 63.5555 217.804C64.1723 215.55 64.0306 213.359 62.8061 211.32C61.81 209.66 60.3554 208.605 58.4275 208.303C56.7464 208.039 55.1906 208.43 53.7746 209.369C52.6827 210.09 51.8394 211.041 51.1968 212.177C51.1416 212.275 51.0882 212.373 51.0108 212.509C50.9519 212.387 50.9059 212.295 50.8654 212.201C49.8416 209.863 48.1053 208.345 45.6085 207.831C42.0309 207.095 39.0057 209.158 38.1292 212.242C37.8162 213.346 37.8125 214.462 38.0629 215.581C38.0887 215.69 38.1145 215.799 38.1495 215.948C38.039 215.928 37.9469 215.915 37.8586 215.891C35.3673 215.226 32.9037 216.874 32.5796 219.439C32.5299 219.836 32.5741 220.245 32.5741 220.675C32.4489 220.634 32.3255 220.596 32.204 220.551C29.3666 219.567 26.0633 221.221 25.1869 223.996C24.5535 226.004 25.4152 228.04 27.2933 228.979C27.5713 229.117 27.8659 229.158 28.1753 229.158C33.2351 229.162 38.2949 229.167 43.3548 229.175C51.0477 229.186 58.7387 229.193 66.4297 229.222C67.0355 229.224 67.4774 229.033 67.8788 228.597C69.0425 227.334 69.6152 225.862 69.385 224.147C69.1512 222.412 68.2047 221.132 66.6728 220.301C65.6141 219.729 64.478 219.522 63.2811 219.668C63.1283 219.686 62.9718 219.701 62.8282 219.718Z" fill="#799849"/>
</g>
<mask id="mask28_64_2484" style="mask-type:luminance" maskUnits="userSpaceOnUse" x="12" y="207" width="46" height="23">
<path d="M12.4307 207.698H57.2107V229.296H12.4307V207.698Z" fill="white"/>
</mask>
<g mask="url(#mask28_64_2484)">
<path d="M19.8676 219.888C19.6761 217.52 20.4697 215.637 22.4454 214.381C24.4027 213.136 26.4336 213.223 28.4406 214.344C29.1826 210.003 33.0714 207.303 37.0854 207.766C39.1624 208.006 40.8858 208.961 42.2152 210.582C43.5428 212.201 44.086 214.088 43.9737 216.238C45.8076 214.739 47.7188 214.445 49.6503 215.834C51.1731 216.93 51.6426 218.51 51.2983 220.371C51.3683 220.36 51.4217 220.36 51.4658 220.343C53.2132 219.659 55.1429 220.35 56.1593 222.078C57.2898 224 56.9529 226.608 55.3602 228.105C54.5739 228.843 53.6404 229.226 52.5522 229.223C40.6078 229.173 28.6634 229.127 16.719 229.081C16.4833 229.081 16.2495 229.069 16.0156 229.071C15.3657 229.081 14.8078 228.833 14.4045 228.352C12.9738 226.646 12.2962 224.712 12.775 222.471C13.3034 220.011 15.6953 218.846 17.7409 219.142C18.4314 219.244 19.0777 219.473 19.6835 219.816C19.7313 219.843 19.7847 219.856 19.8676 219.888Z" fill="#799849"/>
</g>
<mask id="mask29_64_2484" style="mask-type:luminance" maskUnits="userSpaceOnUse" x="1" y="210" width="34" height="20">
<path d="M1.11768 210.53H34.5848V229.296H1.11768V210.53Z" fill="white"/>
</mask>
<g mask="url(#mask29_64_2484)">
<path d="M29.9927 223.563C30.0497 223.41 30.0866 223.312 30.1234 223.214C30.6113 221.909 30.7181 220.585 30.2652 219.251C29.8546 218.04 29.0776 217.145 27.8384 216.732C26.8312 216.398 25.8351 216.504 24.8886 216.966C24.4946 217.158 24.1319 217.413 23.7323 217.651C23.7323 217.575 23.7305 217.492 23.7323 217.409C23.7802 215.864 23.4414 214.418 22.6165 213.101C22.1764 212.398 21.6204 211.807 20.9207 211.358C19.2764 210.304 17.3081 210.399 15.7761 211.615C14.7689 212.413 14.13 213.463 13.7673 214.678C13.6181 215.185 13.5574 215.718 13.4561 216.238C13.4487 216.273 13.4432 216.308 13.4303 216.378C13.3512 216.31 13.2922 216.262 13.237 216.212C12.0825 215.17 10.731 214.67 9.17881 214.811C7.16629 214.991 5.52571 216.397 5.20717 218.449C5.0617 219.379 5.21269 220.275 5.61777 221.125C5.65644 221.206 5.69326 221.285 5.72825 221.367C5.73193 221.374 5.73009 221.385 5.73009 221.409C5.48336 221.453 5.22926 221.481 4.98621 221.547C3.30144 222.008 2.13406 223.032 1.69032 224.754C1.16923 226.779 2.46734 228.756 4.52405 229.112C4.92729 229.182 5.34158 229.223 5.75219 229.223C9.47894 229.21 13.2075 229.186 16.9343 229.164C19.5305 229.147 22.1286 229.127 24.7248 229.106C27.0853 229.088 29.4458 229.071 31.8045 229.044C31.9849 229.042 32.1783 228.992 32.344 228.918C33.4451 228.428 34.3491 227.255 34.2276 225.789C34.1356 224.679 33.2775 223.675 32.1359 223.38C31.5191 223.222 30.9078 223.253 30.3057 223.449C30.221 223.476 30.1381 223.509 29.9927 223.563Z" fill="#799849"/>
</g>
<mask id="mask30_64_2484" style="mask-type:luminance" maskUnits="userSpaceOnUse" x="-25" y="212" width="449" height="130">
<path d="M-24.8076 212.891H423.464V341.774H-24.8076V212.891Z" fill="white"/>
</mask>
<g mask="url(#mask30_64_2484)">
<mask id="mask31_64_2484" style="mask-type:luminance" maskUnits="userSpaceOnUse" x="-25" y="213" width="449" height="129">
<path d="M-24.7137 226.683L419.82 213.024L423.331 327.688L-21.2005 341.35L-24.7137 226.683Z" fill="white"/>
</mask>
<g mask="url(#mask31_64_2484)">
<path d="M-24.7137 226.683L419.825 213.022L423.338 327.688L-21.2005 341.35L-24.7137 226.683Z" fill="url(#paint0_linear_64_2484)"/>
</g>
</g>
<mask id="mask32_64_2484" style="mask-type:luminance" maskUnits="userSpaceOnUse" x="0" y="87" width="199" height="83">
<path d="M0.646484 87.7847H198.15V169.93H0.646484V87.7847Z" fill="white"/>
</mask>
<g mask="url(#mask32_64_2484)">
<mask id="mask33_64_2484" style="mask-type:luminance" maskUnits="userSpaceOnUse" x="1" y="73" width="198" height="97">
<path d="M10.8104 73.4336L198.133 99.6111L188.362 169.747L1.04052 143.57L10.8104 73.4336Z" fill="white"/>
</mask>
<g mask="url(#mask33_64_2484)">
<mask id="mask34_64_2484" style="mask-type:luminance" maskUnits="userSpaceOnUse" x="1" y="73" width="404" height="126">
<path d="M10.8104 73.4336L404.712 128.481L394.941 198.615L1.04052 143.57L10.8104 73.4336Z" fill="white"/>
</mask>
<g mask="url(#mask34_64_2484)">
<path d="M394.834 198.65L1.11233 143.631C1.11233 143.631 22.1103 132.669 46.244 115.1C66.6896 100.22 90.2746 84.5426 111.912 88.786C115.986 89.59 119.816 91.0432 123.399 93.1474C147.914 107.436 147.163 132.359 188.594 139.708C189.406 139.852 190.225 139.929 191.05 139.94C207.174 140.206 223.952 116.308 241.576 117.958C243.827 118.174 245.966 118.773 248.001 119.762C268.894 129.772 292.306 165.913 321.588 166.881C356.964 168.051 363.687 154.133 394.834 198.65Z" fill="#A9C57C"/>
<path d="M220.323 174.264L1.11233 143.631C1.11233 143.631 22.1103 132.669 46.244 115.1C66.6896 100.22 90.2746 84.5426 111.912 88.786C115.986 89.59 119.816 91.0432 123.399 93.1474C147.914 107.436 147.163 132.359 188.594 139.708C189.406 139.852 190.225 139.929 191.05 139.94L191.131 140.538C191.131 140.538 184.813 168.604 220.323 174.264Z" fill="#B7D08E"/>
</g>
</g>
</g>
<mask id="mask35_64_2484" style="mask-type:luminance" maskUnits="userSpaceOnUse" x="0" y="87" width="173" height="81">
<path d="M0.646484 87.7847H172.225V167.569H0.646484V87.7847Z" fill="white"/>
</mask>
<g mask="url(#mask35_64_2484)">
<mask id="mask36_64_2484" style="mask-type:luminance" maskUnits="userSpaceOnUse" x="1" y="73" width="198" height="97">
<path d="M10.8104 73.4336L198.133 99.6111L188.362 169.747L1.04052 143.57L10.8104 73.4336Z" fill="white"/>
</mask>
<g mask="url(#mask36_64_2484)">
<mask id="mask37_64_2484" style="mask-type:luminance" maskUnits="userSpaceOnUse" x="1" y="73" width="404" height="126">
<path d="M10.8104 73.4336L404.712 128.481L394.941 198.615L1.04052 143.57L10.8104 73.4336Z" fill="white"/>
</mask>
<g mask="url(#mask37_64_2484)">
<path d="M169.871 167.213L1.11233 143.631C1.11233 143.631 22.1103 132.669 46.244 115.1C66.6896 100.22 90.2746 84.5426 111.911 88.786C112.182 88.987 112.453 89.1899 112.724 89.3927C113.891 90.2816 125.681 108.8 114.082 118.541C102.482 128.282 160.507 139.887 168.78 154.054C173.751 162.577 172.029 165.911 169.871 167.213Z" fill="#A9C57C"/>
</g>
</g>
</g>
<mask id="mask38_64_2484" style="mask-type:luminance" maskUnits="userSpaceOnUse" x="91" y="104" width="28" height="44">
<path d="M91.1494 104.889H118.489V147.269H91.1494V104.889Z" fill="white"/>
</mask>
<g mask="url(#mask38_64_2484)">
<path d="M117.747 136.121C115.939 141.919 110.897 146.707 104.467 146.85C103.617 146.869 102.773 146.782 101.947 146.607C100.19 146.225 98.5201 145.427 97.0875 144.341C94.8485 142.655 92.6777 140.071 92.0222 137.32C91.3575 134.554 91.5269 131.646 92.0461 128.855C92.2523 127.732 92.5469 126.572 93.3037 125.717C92.5525 124.356 92.0222 122.814 92.1529 121.267C92.2394 120.249 92.6537 119.231 93.335 118.49C93.6922 118.097 94.1231 117.778 94.6165 117.579C93.8285 113.802 95.342 109.645 98.3764 107.255C99.8826 106.062 101.74 105.332 103.648 105.107C105.244 104.92 107.734 104.913 109.065 105.962C110.385 106.999 111.636 108.472 112.361 109.983C112.762 110.818 113.044 111.71 113.188 112.629C113.237 112.964 113.543 115.106 113.201 115.275C113.989 114.888 114.988 115.118 115.659 115.686C116.333 116.26 116.708 117.11 116.891 117.964C117.347 120.136 116.59 122.521 114.963 124.031C117.321 125.136 118.297 127.989 118.448 130.585C118.553 132.457 118.303 134.336 117.747 136.121Z" fill="#91BC5E"/>
</g>
<path d="M117.746 136.121C115.938 141.919 110.897 146.707 104.467 146.85C103.616 146.869 102.773 146.782 101.946 146.607C100.19 146.225 98.5197 145.427 97.0872 144.341C94.8482 142.655 92.6773 140.071 92.0219 137.32C91.3571 134.554 91.5265 131.646 92.0458 128.855C92.252 127.732 92.5466 126.572 93.3034 125.717C92.5521 124.356 92.0219 122.814 92.1526 121.267C92.2391 120.249 92.6534 119.231 93.3347 118.49C93.4212 118.987 93.4838 119.474 93.5722 119.856C94.0657 121.916 94.8114 123.913 95.5111 125.91C96.0487 127.47 96.5993 129.043 97.4555 130.454C100.247 135.066 105.97 137.289 111.366 137.195C113.532 137.158 115.69 136.789 117.746 136.121Z" fill="#789B45"/>
<mask id="mask39_64_2484" style="mask-type:luminance" maskUnits="userSpaceOnUse" x="100" y="121" width="11" height="41">
<path d="M100.577 121.776H110.947V161.187H100.577V121.776Z" fill="white"/>
</mask>
<g mask="url(#mask39_64_2484)">
<path d="M110.694 139.284C109.789 140.014 109.035 140.909 108.286 141.798C107.638 142.565 106.99 143.339 106.34 144.106C106.005 144.507 105.791 144.732 105.775 145.259V145.44C105.764 145.895 105.758 146.356 105.758 146.817C105.741 148.896 105.764 150.976 105.786 153.056C105.819 155.7 105.852 158.339 105.883 160.984C104.598 160.901 103.305 160.973 102.024 161.187C101.952 161.187 102.436 151.157 102.497 150.187C102.635 148.012 102.843 145.834 102.965 143.656C103.031 142.57 103.07 141.479 103.07 140.392C103.064 139.815 103.064 139.234 102.992 138.664C102.926 138.165 102.816 137.676 102.701 137.187C102.525 136.409 102.342 135.623 102.074 134.873C101.794 134.082 101.42 133.331 101.013 132.601C100.787 132.201 100.38 131.334 100.941 130.993C101.556 131.587 102.074 132.276 102.469 133.029C102.646 133.364 102.854 133.665 103.031 134.001C103.156 134.242 103.58 134.823 103.58 135.103C103.69 133.501 103.795 131.898 103.884 130.29C103.931 129.353 103.948 121.868 104.712 122.242C105.055 122.406 105.119 125.831 105.169 126.44C105.312 128.162 105.456 129.884 105.598 131.607C105.764 133.54 105.922 135.47 105.955 137.423C105.977 138.817 105.933 140.217 105.883 141.609C105.894 141.598 105.905 141.587 105.922 141.576C107.364 140.403 109.041 139.459 110.656 138.543C110.667 138.79 110.683 139.037 110.694 139.284Z" fill="#A47052"/>
</g>
<mask id="mask40_64_2484" style="mask-type:luminance" maskUnits="userSpaceOnUse" x="266" y="125" width="29" height="43">
<path d="M266.97 125.333H294.243V167.569H266.97V125.333Z" fill="white"/>
</mask>
<g mask="url(#mask40_64_2484)">
<path d="M293.265 156.565C291.457 162.363 286.415 167.151 279.986 167.295C279.135 167.313 278.29 167.224 277.465 167.051C275.708 166.669 274.038 165.871 272.606 164.785C270.367 163.099 268.196 160.516 267.539 157.764C266.876 154.998 267.045 152.09 267.564 149.299C267.771 148.176 268.065 147.016 268.822 146.161C268.071 144.8 267.539 143.258 267.671 141.711C267.758 140.693 268.17 139.675 268.853 138.934C269.209 138.539 269.641 138.222 270.135 138.023C269.347 134.246 270.86 130.089 273.893 127.699C275.401 126.506 277.259 125.776 279.166 125.551C280.761 125.364 283.25 125.357 284.583 126.406C285.904 127.443 287.154 128.916 287.879 130.427C288.279 131.262 288.561 132.155 288.704 133.073C288.756 133.409 289.061 135.55 288.717 135.719C289.505 135.332 290.507 135.563 291.175 136.131C291.851 136.704 292.227 137.554 292.407 138.408C292.864 140.58 292.107 142.965 290.481 144.475C292.84 145.58 293.816 148.433 293.965 151.029C294.072 152.901 293.821 154.78 293.265 156.565Z" fill="#91BC5E"/>
</g>
<path d="M293.265 156.565C291.457 162.363 286.415 167.151 279.985 167.295C279.135 167.313 278.29 167.225 277.465 167.051C275.708 166.67 274.038 165.871 272.606 164.785C270.367 163.099 268.196 160.516 267.538 157.764C266.876 154.998 267.045 152.09 267.564 149.3C267.77 148.177 268.065 147.017 268.822 146.161C268.07 144.8 267.538 143.258 267.671 141.711C267.757 140.693 268.17 139.675 268.853 138.934C268.94 139.432 269.002 139.918 269.091 140.3C269.584 142.36 270.328 144.357 271.029 146.355C271.567 147.915 272.118 149.488 272.974 150.898C275.763 155.511 281.486 157.733 286.885 157.639C289.048 157.602 291.206 157.233 293.265 156.565Z" fill="#789B45"/>
<mask id="mask41_64_2484" style="mask-type:luminance" maskUnits="userSpaceOnUse" x="275" y="142" width="12" height="40">
<path d="M275.925 142.548H286.295V181.631H275.925V142.548Z" fill="white"/>
</mask>
<g mask="url(#mask41_64_2484)">
<path d="M286.213 159.728C285.305 160.457 284.552 161.351 283.804 162.24C283.156 163.009 282.506 163.781 281.858 164.551C281.523 164.951 281.307 165.176 281.291 165.703V165.884C281.28 166.339 281.274 166.8 281.274 167.261C281.26 169.34 281.28 171.42 281.302 173.5C281.335 176.145 281.368 178.784 281.401 181.428C280.114 181.345 278.823 181.417 277.542 181.631C277.47 181.631 277.954 171.601 278.015 170.631C278.151 168.456 278.361 166.278 278.481 164.101C278.547 163.014 278.586 161.923 278.586 160.836C278.58 160.259 278.58 159.678 278.509 159.108C278.444 158.609 278.334 158.12 278.218 157.631C278.043 156.853 277.86 156.067 277.592 155.317C277.31 154.526 276.936 153.775 276.529 153.045C276.305 152.645 275.898 151.778 276.459 151.437C277.074 152.031 277.592 152.72 277.988 153.473C278.162 153.807 278.372 154.109 278.547 154.445C278.674 154.686 279.098 155.267 279.098 155.547C279.208 153.945 279.311 152.342 279.4 150.734C279.45 149.797 279.466 142.312 280.23 142.686C280.571 142.851 280.637 146.273 280.687 146.884C280.83 148.606 280.972 150.329 281.116 152.051C281.28 153.984 281.44 155.914 281.473 157.867C281.495 159.262 281.451 160.661 281.401 162.054C281.412 162.042 281.423 162.031 281.44 162.02C282.88 160.847 284.557 159.903 286.174 158.987C286.185 159.234 286.202 159.481 286.213 159.728Z" fill="#A47052"/>
</g>
<path d="M167.332 57.8895C165.736 57.8452 164.051 58.5773 162.631 60.3311C156.734 55.2026 151.28 60.51 149.085 66.4831C149.195 67.5269 149.438 68.792 149.527 68.792C149.372 63.4403 157.354 55.4902 162.188 60.8198C161.368 60.7313 159.659 62.841 160.68 62.1752C162.92 60.7091 164.073 62.3965 165.957 62.3965C165.957 62.3965 164.914 60.6649 163.43 60.3311C162.898 60.2204 164.294 59.6875 164.738 59.3555C168.264 56.9785 171.145 60.1983 172.653 62.2859C171.722 59.6875 169.615 57.978 167.332 57.8895Z" fill="white"/>
<path d="M405.734 164.348C402.236 175.606 392.482 184.902 380.043 185.181C378.397 185.218 376.763 185.048 375.167 184.709C371.766 183.969 368.535 182.417 365.764 180.309C361.431 177.035 357.233 172.019 355.962 166.673C354.679 161.305 355.007 155.656 356.01 150.24C356.41 148.058 356.979 145.803 358.443 144.143C356.99 141.501 355.962 138.508 356.217 135.502C356.386 133.527 357.185 131.552 358.503 130.108C359.194 129.344 360.028 128.726 360.984 128.339C359.459 121.007 362.388 112.935 368.257 108.293C371.173 105.977 374.767 104.561 378.457 104.124C381.543 103.76 386.36 103.748 388.938 105.783C391.49 107.795 393.911 110.656 395.314 113.59C396.089 115.213 396.634 116.946 396.913 118.727C397.008 119.382 397.601 123.539 396.936 123.867C398.461 123.115 400.396 123.565 401.693 124.667C402.998 125.781 403.725 127.43 404.075 129.09C404.959 133.307 403.495 137.938 400.348 140.87C404.911 143.017 406.798 148.555 407.089 153.596C407.296 157.233 406.811 160.881 405.734 164.348Z" fill="#91BC5E"/>
<path d="M405.734 164.348C402.236 175.606 392.482 184.902 380.043 185.181C378.397 185.218 376.763 185.048 375.167 184.709C371.766 183.969 368.535 182.416 365.764 180.309C361.431 177.035 357.233 172.019 355.962 166.673C354.679 161.305 355.007 155.656 356.01 150.24C356.41 148.058 356.979 145.803 358.443 144.143C356.99 141.501 355.962 138.508 356.217 135.502C356.386 133.527 357.185 131.552 358.503 130.108C358.673 131.078 358.794 132.024 358.964 132.763C359.919 136.761 361.359 140.641 362.714 144.519C363.755 147.549 364.821 150.603 366.478 153.342C371.875 162.299 382.948 166.612 393.39 166.431C397.577 166.358 401.753 165.644 405.734 164.348Z" fill="#8DBA36"/>
<mask id="mask42_64_2484" style="mask-type:luminance" maskUnits="userSpaceOnUse" x="372" y="137" width="21" height="77">
<path d="M372.556 137.355H392.354V213.108H372.556V137.355Z" fill="white"/>
</mask>
<g mask="url(#mask42_64_2484)">
<path d="M392.09 170.489C390.336 171.905 388.879 173.642 387.432 175.368C386.176 176.86 384.92 178.361 383.666 179.853C383.016 180.631 382.602 181.068 382.571 182.09V182.442C382.549 183.326 382.538 184.222 382.538 185.116C382.506 189.155 382.549 193.192 382.591 197.23C382.656 202.366 382.72 207.489 382.783 212.625C380.293 212.467 377.795 212.605 375.316 213.02C375.176 213.02 376.114 193.544 376.23 191.657C376.497 187.44 376.9 183.209 377.134 178.979C377.262 176.869 377.336 174.75 377.336 172.641C377.325 171.521 377.325 170.393 377.187 169.284C377.06 168.314 376.846 167.366 376.624 166.419C376.283 164.905 375.933 163.381 375.41 161.923C374.869 160.388 374.145 158.928 373.357 157.511C372.923 156.733 372.135 155.05 373.219 154.389C374.41 155.54 375.41 156.883 376.178 158.343C376.517 158.992 376.922 159.579 377.262 160.228C377.507 160.696 378.327 161.827 378.327 162.369C378.538 159.258 378.741 156.147 378.91 153.026C379.006 151.204 379.039 136.671 380.518 137.396C381.177 137.716 381.304 144.365 381.4 145.547C381.676 148.892 381.954 152.237 382.23 155.582C382.549 159.333 382.858 163.083 382.921 166.876C382.963 169.583 382.878 172.3 382.783 175.005C382.805 174.985 382.825 174.962 382.858 174.942C385.644 172.661 388.888 170.83 392.017 169.05C392.039 169.53 392.07 170.009 392.09 170.489Z" fill="#A47052"/>
</g>
<mask id="mask43_64_2484" style="mask-type:luminance" maskUnits="userSpaceOnUse" x="154" y="189" width="82" height="25">
<path d="M154.681 189.913H235.992V213.282H154.681V189.913Z" fill="white"/>
</mask>
<g mask="url(#mask43_64_2484)">
<path d="M235.887 201.596C235.887 201.786 235.87 201.978 235.839 202.168C235.806 202.359 235.756 202.549 235.692 202.739C235.627 202.929 235.546 203.119 235.449 203.307C235.351 203.497 235.237 203.685 235.108 203.872C234.977 204.06 234.832 204.246 234.67 204.432C234.509 204.617 234.331 204.801 234.139 204.984C233.946 205.166 233.738 205.347 233.513 205.528C233.291 205.708 233.051 205.885 232.797 206.062C232.543 206.24 232.272 206.413 231.989 206.586C231.705 206.76 231.407 206.929 231.092 207.097C230.779 207.267 230.451 207.433 230.111 207.597C229.768 207.761 229.413 207.921 229.045 208.08C228.674 208.239 228.293 208.395 227.897 208.548C227.502 208.701 227.093 208.853 226.671 209C226.249 209.148 225.815 209.293 225.369 209.434C224.922 209.576 224.465 209.714 223.994 209.848C223.524 209.985 223.044 210.116 222.552 210.245C222.059 210.372 221.556 210.498 221.042 210.618C220.529 210.739 220.006 210.857 219.472 210.972C218.938 211.084 218.395 211.195 217.842 211.3C217.29 211.407 216.728 211.508 216.157 211.608C215.588 211.706 215.01 211.8 214.425 211.89C213.837 211.98 213.244 212.065 212.644 212.148C212.044 212.229 211.436 212.307 210.821 212.379C210.208 212.452 209.588 212.521 208.964 212.585C208.337 212.65 207.706 212.711 207.071 212.766C206.435 212.821 205.795 212.871 205.15 212.919C204.506 212.965 203.858 213.006 203.206 213.044C202.554 213.081 201.899 213.114 201.241 213.142C200.584 213.17 199.925 213.194 199.264 213.212C198.603 213.231 197.94 213.245 197.277 213.255C196.612 213.264 195.949 213.268 195.285 213.268C194.62 213.268 193.955 213.264 193.292 213.255C192.628 213.245 191.965 213.231 191.304 213.212C190.643 213.194 189.984 213.17 189.326 213.142C188.669 213.114 188.015 213.081 187.363 213.044C186.712 213.006 186.063 212.965 185.419 212.919C184.775 212.871 184.134 212.821 183.499 212.766C182.861 212.711 182.232 212.65 181.606 212.585C180.98 212.521 180.359 212.452 179.746 212.379C179.133 212.307 178.525 212.229 177.923 212.148C177.323 212.065 176.73 211.98 176.144 211.89C175.557 211.8 174.981 211.706 174.41 211.608C173.839 211.508 173.279 211.407 172.727 211.3C172.175 211.195 171.632 211.084 171.098 210.972C170.564 210.857 170.039 210.739 169.525 210.618C169.011 210.498 168.509 210.372 168.017 210.245C167.524 210.116 167.043 209.985 166.574 209.848C166.104 209.714 165.646 209.576 165.2 209.434C164.752 209.293 164.32 209.148 163.898 209C163.476 208.853 163.068 208.701 162.672 208.548C162.276 208.395 161.893 208.239 161.525 208.08C161.155 207.921 160.799 207.761 160.459 207.597C160.116 207.433 159.788 207.267 159.475 207.097C159.162 206.929 158.864 206.76 158.579 206.586C158.295 206.413 158.026 206.24 157.772 206.062C157.518 205.885 157.279 205.708 157.054 205.528C156.831 205.347 156.623 205.166 156.43 204.984C156.237 204.801 156.06 204.617 155.898 204.432C155.736 204.246 155.59 204.06 155.461 203.872C155.332 203.685 155.218 203.497 155.121 203.307C155.023 203.119 154.942 202.929 154.876 202.739C154.811 202.549 154.764 202.359 154.73 202.168C154.697 201.978 154.681 201.786 154.681 201.596C154.681 201.404 154.697 201.214 154.73 201.022C154.764 200.833 154.811 200.641 154.876 200.451C154.942 200.261 155.023 200.071 155.121 199.883C155.218 199.693 155.332 199.505 155.461 199.318C155.59 199.13 155.736 198.944 155.898 198.76C156.06 198.573 156.237 198.389 156.43 198.206C156.623 198.024 156.831 197.843 157.054 197.662C157.279 197.484 157.518 197.305 157.772 197.128C158.026 196.952 158.295 196.777 158.579 196.604C158.864 196.432 159.162 196.261 159.475 196.093C159.788 195.925 160.116 195.757 160.459 195.595C160.799 195.431 161.155 195.269 161.525 195.11C161.893 194.952 162.276 194.795 162.672 194.642C163.068 194.489 163.476 194.337 163.898 194.19C164.32 194.042 164.752 193.899 165.2 193.757C165.646 193.615 166.104 193.476 166.574 193.342C167.043 193.207 167.524 193.074 168.017 192.947C168.509 192.818 169.011 192.692 169.525 192.573C170.039 192.451 170.564 192.333 171.098 192.22C171.632 192.106 172.175 191.995 172.727 191.89C173.279 191.783 173.839 191.682 174.41 191.584C174.981 191.485 175.557 191.391 176.144 191.3C176.73 191.212 177.323 191.125 177.923 191.044C178.525 190.961 179.133 190.883 179.746 190.811C180.359 190.738 180.98 190.669 181.606 190.605C182.232 190.54 182.861 190.481 183.499 190.426C184.134 190.369 184.775 190.319 185.419 190.273C186.063 190.227 186.712 190.184 187.363 190.148C188.015 190.109 188.669 190.078 189.326 190.05C189.984 190.02 190.643 189.998 191.304 189.978C191.965 189.959 192.628 189.947 193.292 189.937C193.955 189.928 194.62 189.923 195.285 189.923C195.949 189.923 196.612 189.928 197.277 189.937C197.94 189.947 198.603 189.959 199.264 189.978C199.925 189.998 200.584 190.02 201.241 190.05C201.899 190.078 202.554 190.109 203.206 190.148C203.858 190.184 204.506 190.227 205.15 190.273C205.795 190.319 206.435 190.369 207.071 190.426C207.706 190.481 208.337 190.54 208.964 190.605C209.588 190.669 210.208 190.738 210.821 190.811C211.436 190.883 212.044 190.961 212.644 191.044C213.244 191.125 213.837 191.212 214.425 191.3C215.01 191.391 215.588 191.485 216.157 191.584C216.728 191.682 217.29 191.783 217.842 191.89C218.395 191.995 218.938 192.106 219.472 192.22C220.006 192.333 220.529 192.451 221.042 192.573C221.556 192.692 222.059 192.818 222.552 192.947C223.044 193.074 223.524 193.207 223.994 193.342C224.465 193.476 224.922 193.615 225.369 193.757C225.815 193.899 226.249 194.042 226.671 194.19C227.093 194.337 227.502 194.489 227.897 194.642C228.293 194.795 228.674 194.952 229.045 195.11C229.413 195.269 229.768 195.431 230.111 195.595C230.451 195.757 230.779 195.925 231.092 196.093C231.407 196.261 231.705 196.432 231.989 196.604C232.272 196.777 232.543 196.952 232.797 197.128C233.051 197.305 233.291 197.484 233.513 197.662C233.738 197.843 233.946 198.024 234.139 198.206C234.331 198.389 234.509 198.573 234.67 198.76C234.832 198.944 234.977 199.13 235.108 199.318C235.237 199.505 235.351 199.693 235.449 199.883C235.546 200.071 235.627 200.261 235.692 200.451C235.756 200.641 235.806 200.833 235.839 201.022C235.87 201.214 235.887 201.404 235.887 201.596Z" fill="#E8BD92"/>
</g>
<mask id="mask44_64_2484" style="mask-type:luminance" maskUnits="userSpaceOnUse" x="154" y="105" width="88" height="82">
<path d="M154.681 105.085H241.516V186.286H154.681V105.085Z" fill="white"/>
</mask>
<g mask="url(#mask44_64_2484)">
<path d="M235.819 148.62L235.765 148.686C235.051 149.628 234.285 150.51 233.464 151.327L207.594 181.034C201.676 187.826 192.018 187.605 186.343 180.549L163.62 152.275C161.589 150.475 159.827 148.289 158.426 145.813L158.407 145.789H158.413C156.036 141.593 154.681 136.572 154.747 131.178C154.939 116.926 165.268 105.339 177.693 105.43C186.633 105.494 194.355 111.466 198.039 120.105C201.939 110.962 210.35 104.818 219.941 105.478C231.146 106.25 240.295 116.471 241.247 129.293C241.797 136.692 239.652 143.508 235.819 148.62Z" fill="#FAA81A"/>
</g>
<path d="M211.998 141C209.332 141 207.168 143.166 207.168 145.837C207.168 148.513 209.326 150.672 211.998 150.672C214.664 150.672 216.828 148.505 216.828 145.837C216.828 143.166 214.664 141 211.998 141Z" fill="#F26522"/>
<path d="M187.117 141C184.451 141 182.289 143.166 182.289 145.837C182.289 148.505 184.451 150.672 187.117 150.672C189.783 150.672 191.947 148.505 191.947 145.837C191.947 143.166 189.783 141 187.117 141Z" fill="#F26522"/>
<path d="M209.313 138.324C209.313 141.3 206.905 143.712 203.933 143.712C200.963 143.712 198.555 141.3 198.555 138.324C198.555 135.347 200.963 132.935 203.933 132.935C206.905 132.935 209.313 135.347 209.313 138.324Z" fill="white"/>
<path d="M196.524 138.324C196.524 141.3 194.116 143.712 191.144 143.712C188.172 143.712 185.764 141.3 185.764 138.324C185.764 135.347 188.172 132.935 191.144 132.935C194.116 132.935 196.524 135.347 196.524 138.324Z" fill="white"/>
<path d="M203.67 142.469C201.298 142.469 199.369 140.537 199.369 138.161C199.369 137.627 199.8 137.195 200.333 137.195C200.867 137.195 201.298 137.627 201.298 138.161C201.298 139.476 202.364 140.544 203.677 140.544C204.988 140.544 206.054 139.476 206.054 138.161C206.054 137.627 206.487 137.195 207.019 137.195C207.553 137.195 207.984 137.627 207.984 138.161C207.966 140.537 206.038 142.469 203.67 142.469Z" fill="black"/>
<path d="M191.413 142.469C189.041 142.469 187.111 140.537 187.111 138.161C187.111 137.627 187.542 137.195 188.076 137.195C188.608 137.195 189.041 137.627 189.041 138.161C189.041 139.476 190.107 140.544 191.418 140.544C192.731 140.544 193.797 139.476 193.797 138.161C193.797 137.627 194.228 137.195 194.762 137.195C195.296 137.195 195.727 137.627 195.727 138.161C195.714 140.537 193.786 142.469 191.413 142.469Z" fill="black"/>
<path d="M204.874 148.236C204.126 151.008 201.567 153.132 198.674 153.209C195.761 153.289 193.143 151.242 192.252 148.523C191.843 147.288 193.786 146.766 194.187 147.991C194.804 149.868 196.673 151.266 198.674 151.199C200.687 151.135 202.423 149.615 202.939 147.701C203.281 146.447 205.216 146.982 204.874 148.236Z" fill="black"/>
<path d="M205.121 145.47C205.121 146.766 203.114 146.766 203.114 145.47C203.114 144.168 203.029 142.877 202.861 141.588C202.79 141.047 203.377 140.579 203.869 140.579C204.462 140.586 204.802 141.042 204.874 141.588C205.042 142.877 205.126 144.168 205.121 145.47ZM208.936 143.483C208.337 142.362 207.739 141.234 207.144 140.111C206.54 138.971 204.802 139.985 205.413 141.125C206.012 142.248 206.612 143.377 207.205 144.498C207.811 145.637 209.547 144.623 208.936 143.483ZM202.119 140.004C201.604 139.697 201.075 139.932 200.746 140.363C200.076 141.234 199.411 142.11 198.739 142.98C198.409 143.412 198.674 144.107 199.1 144.354C199.613 144.66 200.142 144.426 200.471 143.994C201.142 143.124 201.806 142.248 202.478 141.377C202.808 140.946 202.545 140.249 202.119 140.004Z" fill="black"/>
<path d="M191.91 145.781C191.785 147.072 189.789 146.88 189.908 145.59C190.035 144.293 190.076 142.999 190.028 141.702C190.011 141.162 190.639 140.747 191.125 140.795C191.713 140.861 192.011 141.348 192.029 141.894C192.072 143.196 192.035 144.492 191.91 145.781ZM195.894 144.173C195.408 142.999 194.918 141.822 194.432 140.645C193.935 139.452 192.114 140.291 192.611 141.492C193.096 142.668 193.587 143.843 194.073 145.02C194.57 146.207 196.391 145.368 195.894 144.173ZM189.435 140.052C188.951 139.698 188.406 139.884 188.034 140.28C187.284 141.084 186.537 141.888 185.787 142.692C185.416 143.087 185.613 143.808 186.014 144.096C186.5 144.45 187.045 144.264 187.417 143.867C188.166 143.063 188.914 142.259 189.663 141.455C190.035 141.06 189.836 140.339 189.435 140.052Z" fill="black"/>
<mask id="mask45_64_2484" style="mask-type:luminance" maskUnits="userSpaceOnUse" x="172" y="171" width="22" height="36">
<path d="M172.696 171.179H193.436V206.044H172.696V171.179Z" fill="white"/>
</mask>
<g mask="url(#mask45_64_2484)">
<path d="M175.38 205.893H193.127V171.356H180.017V197.043L173.985 201.915C172.337 203.241 173.278 205.893 175.38 205.893Z" fill="#FAA81A"/>
</g>
<mask id="mask46_64_2484" style="mask-type:luminance" maskUnits="userSpaceOnUse" x="195" y="171" width="21" height="36">
<path d="M195.321 171.179H215.59V206.044H195.321V171.179Z" fill="white"/>
</mask>
<g mask="url(#mask46_64_2484)">
<path d="M197.614 205.893H215.358V171.356H202.25V197.043L196.211 201.915C194.57 203.241 195.504 205.893 197.614 205.893Z" fill="#FAA81A"/>
</g>
<mask id="mask47_64_2484" style="mask-type:luminance" maskUnits="userSpaceOnUse" x="172" y="190" width="22" height="17">
<path d="M172.696 190.535H193.436V206.044H172.696V190.535Z" fill="white"/>
</mask>
<g mask="url(#mask47_64_2484)">
<path d="M173.985 201.915L180.024 197.048V190.959H193.132V205.9H175.38C173.278 205.893 172.337 203.241 173.985 201.915Z" fill="#F26522"/>
</g>
<mask id="mask48_64_2484" style="mask-type:luminance" maskUnits="userSpaceOnUse" x="195" y="190" width="21" height="17">
<path d="M195.321 190.535H215.59V206.044H195.321V190.535Z" fill="white"/>
</mask>
<g mask="url(#mask48_64_2484)">
<path d="M196.211 201.915L202.25 197.048V190.959H215.358V205.9H197.614C195.504 205.893 194.57 203.241 196.211 201.915Z" fill="#F26522"/>
</g>
<path d="M175.08 157.98C185.482 167.953 195.373 166.603 207.726 163.885C208.697 163.669 210.02 163.999 210.212 164.971C210.368 165.757 209.619 166.404 208.954 166.862C207.41 167.916 205.857 168.973 204.311 170.03C204.983 169.657 205.9 170.179 206.102 170.924C206.307 171.667 205.935 172.466 205.379 172.993C204.815 173.515 204.09 173.816 203.377 174.109C204.095 173.6 205.217 174.092 205.528 174.92C205.839 175.748 205.474 176.713 204.845 177.338C204.215 177.961 203.372 178.31 202.532 178.587C196.314 180.669 189.435 179.953 183.204 177.89C176.89 175.796 170.965 172.291 166.537 167.317C162.11 162.343 159.271 154.037 159.199 147.378L175.08 157.98Z" fill="#FAA81A"/>
<path d="M209.303 167.354L205.917 169.663C206.294 169.934 206.576 170.323 206.695 170.755C206.937 171.644 206.589 172.687 205.797 173.425C205.666 173.545 205.534 173.654 205.39 173.755C205.714 174.002 205.964 174.332 206.097 174.697C206.463 175.677 206.134 176.907 205.276 177.751C204.558 178.472 203.628 178.845 202.729 179.144C199.975 180.068 197.182 180.429 194.51 180.429C190.161 180.429 186.117 179.474 183.026 178.454C182.096 178.148 181.192 177.812 180.306 177.453C180.269 176.96 180.174 176.486 180.017 176.023C181.12 176.492 182.247 176.923 183.409 177.314C188.226 178.909 195.427 180.326 202.352 178.009C203.107 177.759 203.886 177.445 204.431 176.907C204.858 176.486 205.204 175.749 204.97 175.129C204.874 174.865 204.617 174.638 204.318 174.548C204.239 174.524 204.127 174.5 204.005 174.511C203.875 174.566 203.742 174.62 203.617 174.673C203.33 174.788 203.006 174.673 202.862 174.404C202.713 174.133 202.79 173.797 203.042 173.624C203.227 173.491 203.436 173.401 203.659 173.348C204.143 173.137 204.611 172.898 204.978 172.556C205.355 172.202 205.677 171.607 205.534 171.085C205.475 170.869 205.283 170.666 205.055 170.57C204.959 170.528 204.779 170.474 204.617 170.563C204.335 170.72 203.981 170.629 203.808 170.353C203.641 170.078 203.713 169.718 203.981 169.538L208.625 166.369C209.362 165.866 209.699 165.44 209.632 165.097C209.601 164.935 209.5 164.804 209.332 164.689C208.973 164.455 208.373 164.37 207.865 164.479C195.145 167.282 185.315 168.494 174.865 158.605C175.129 158.299 175.368 157.969 175.578 157.621C185.637 167.216 195.199 166.026 207.601 163.297C208.428 163.116 209.362 163.26 209.986 163.675C210.43 163.968 210.717 164.378 210.807 164.857C211.063 166.148 209.739 167.053 209.303 167.354Z" fill="black"/>
<path d="M220.337 156.534C223.399 151.506 229.558 150.829 234.65 148.92C237.664 162.32 225.592 170.677 213.795 177.086C207.78 180.355 196.176 187.256 193.714 180.866C193.246 179.654 194.762 178.334 195.769 176.918C192.168 182.019 188.621 172.009 194.714 172.261C187.877 172.586 190.448 166.356 195.913 167.413C205.049 167.69 214.359 163.417 220.337 156.534Z" fill="#FAA81A"/>
<path d="M215.454 176.864C214.999 177.115 214.544 177.368 214.09 177.613C213.705 177.823 213.303 178.041 212.885 178.273C208.547 180.661 202.316 184.082 197.912 184.082C197.141 184.082 196.426 183.981 195.785 183.741C194.546 183.284 193.659 182.389 193.156 181.076C192.874 180.344 193.084 179.636 193.486 178.952C193.18 178.928 192.928 178.845 192.76 178.765C191.359 178.129 190.495 176.005 190.921 174.212C191.088 173.515 191.425 172.945 191.904 172.519C190.928 172.165 190.466 171.614 190.251 171.212C189.812 170.395 189.932 169.388 190.575 168.518C191.388 167.407 193.294 166.303 195.971 166.801C204.76 167.059 213.904 162.985 219.845 156.169C220.361 155.334 220.961 154.615 221.613 153.99C221.764 154.404 221.924 154.812 222.105 155.214C221.644 155.701 221.219 156.234 220.847 156.841C220.829 156.87 220.81 156.894 220.786 156.925C214.611 164.047 205.066 168.294 195.894 168.012C195.865 168.012 195.828 168.007 195.798 168.001C193.64 167.581 192.162 168.403 191.551 169.237C191.191 169.729 191.107 170.246 191.322 170.648C191.657 171.278 192.683 171.643 194.108 171.662C194.312 171.643 194.528 171.643 194.743 171.649C195.067 171.662 195.32 171.926 195.32 172.25C195.32 172.573 195.067 172.838 194.743 172.855C194.522 172.868 194.312 172.868 194.115 172.868C193.018 172.969 192.324 173.521 192.096 174.494C191.808 175.701 192.388 177.272 193.257 177.668C194.031 178.015 194.786 177.261 195.277 176.564C195.469 176.294 195.846 176.228 196.115 176.42C196.386 176.612 196.45 176.99 196.259 177.261C196.259 177.266 196.253 177.266 196.253 177.272C196.008 177.62 195.732 177.961 195.469 178.292C194.738 179.197 194.049 180.051 194.283 180.645C194.66 181.635 195.288 182.277 196.2 182.607C199.974 183.986 207.691 179.745 212.304 177.211C212.729 176.979 213.13 176.755 213.513 176.553C214.058 176.252 214.603 175.951 215.143 175.653C215.161 176.09 215.275 176.462 215.454 176.864Z" fill="black"/>
<path d="M167.332 57.8893C165.736 57.8451 164.051 58.5772 162.631 60.331C156.645 55.1139 151.101 60.6648 148.995 66.7486C145.826 65.0612 144.184 64.3954 141.346 67.7038C139.306 65.1718 137.356 63.8846 133.697 63.9289C129.085 53.4929 118.442 58.1328 114.74 66.7928C112.856 63.6855 110.794 62.9736 107.091 64.7292C102.834 60.3974 96.4262 60.0212 92.2575 65.773C88.7094 64.0174 86.6586 65.2382 83 66.7928L81.127 68V72.5004H188.328V60.3752C186.067 60.9303 183.784 62.7745 181.788 65.3065C179.348 61.9741 176.888 61.4633 173.031 63.573C172.386 60.2425 169.971 57.9779 167.332 57.8893Z" fill="#F4FCED"/>
<path d="M84 70C84 71.1046 82.6569 72.5 81 72.5C79.3431 72.5 78 71.1046 78 70C78 68.8954 79.3431 68 81 68C82.6569 68 84 68.8954 84 70Z" fill="#F4FCED"/>
<path d="M193 69C193 71.8364 190.787 72.5 189.5 72.5C184.839 72.5 185.008 68.6142 185.008 65.7778C185.008 62.9414 188.5 57 191 63C195 64.5 193 66.1636 193 69Z" fill="#F4FCED"/>
</g>
<defs>
<linearGradient id="paint0_linear_64_2484" x1="199.312" y1="213.022" x2="199.312" y2="341.35" gradientUnits="userSpaceOnUse">
<stop stop-color="#F4DECA"/>
<stop offset="1" stop-color="#F5F6F6"/>
</linearGradient>
<clipPath id="clip0_64_2484">
<rect width="393" height="342" fill="white"/>
</clipPath>
</defs>
</svg>
